Coordinates
version=1
nRows=12
nColumns=24
inDegrees=yes

Units are S.I. units (second, meters, Newtons, ...)
Angles are in degrees.

endheader
time	pelvis_tilt	pelvis_list	pelvis_rotation	pelvis_tx	pelvis_ty	pelvis_tz	hip_flexion_r	hip_adduction_r	hip_rotation_r	knee_angle_r	ankle_angle_r	subtalar_angle_r	mtp_angle_r	hip_flexion_l	hip_adduction_l	hip_rotation_l	knee_angle_l	ankle_angle_l	subtalar_angle_l	mtp_angle_l	lumbar_extension	lumbar_bending	lumbar_rotation
      1.02133333	      1.12177741	     -2.74268321	     -0.44702572	      0.43590786	      1.02181960	      0.34332079	      9.11614370	      5.41048168	     -7.44207349	    -13.10031695	     -0.74029991	     -9.24560183	     -3.30927354	     18.53252402	    -10.10641829	    -12.00334074	    -74.74318260	      1.09726545	    -15.95296109	     -6.23330415	    -11.50800517	      6.78392860	      5.33674841
      1.02550000	      1.23435689	     -2.69246084	     -0.62981843	      0.44074016	      1.02257734	      0.34389958	      8.56443547	      5.40947376	     -7.29203251	    -12.85814893	     -0.59815765	     -9.08094506	     -3.25092735	     18.99355199	    -10.05080378	    -12.09632742	    -74.34589614	      1.28274784	    -15.75887634	     -6.25962292	    -11.63731963	      6.70005909	      5.41678291
      1.02966667	      1.44381371	     -2.61215932	     -0.84288583	      0.44556264	      1.02350341	      0.34456366	      7.90397314	      5.38076245	     -7.09541506	    -12.60884187	     -0.42673037	     -8.94428391	     -3.16718543	     19.30724514	     -9.97668445	    -12.24319617	    -73.85597365	      1.44094596	    -15.57583981	     -6.29582372	    -11.88940849	      6.55297749	      5.59295295
      1.03383333	      1.67271998	     -2.53958290	     -1.07053057	      0.45037142	      1.02443637	      0.34528738	      7.21737519	      5.36499720	     -6.85774096	    -12.34362431	     -0.29078798	     -8.88614594	     -3.03425661	     19.58058170	     -9.92210032	    -12.41575252	    -73.31072052	      1.55577784	    -15.49054698	     -6.34879003	    -12.16978335	      6.39415672	      5.80433701
      1.03800000	      1.74305120	     -2.49128465	     -1.23280351	      0.45516422	      1.02504035	      0.34581229	      6.71863997	      5.35082125	     -6.72029961	    -12.10735872	     -0.17747473	     -8.75471713	     -2.97979929	     20.05782698	     -9.85849649	    -12.48513352	    -72.76226568	      1.68980968	    -15.27313034	     -6.36253942	    -12.25073843	      6.30554599	      5.86977655
      1.04216667	      1.98955732	     -2.42241048	     -1.46874355	      0.45993796	      1.02592868	      0.34653739	      6.02063962	      5.32783726	     -6.46781494	    -11.85485033	     -0.01417400	     -8.66167357	     -2.84448987	     20.27876474	     -9.81128815	    -12.67006623	    -72.11609241	      1.83775611	    -15.12490285	     -6.39535887	    -12.55435746	      6.15056987	      6.08095588
      1.04633333	      2.03838132	     -2.37626088	     -1.61044315	      0.46469188	      1.02642505	      0.34702409	      5.55450173	      5.30806637	     -6.34484383	    -11.63305415	      0.10356533	     -8.56267388	     -2.79837746	     20.76043676	     -9.74152662	    -12.71666672	    -71.47201361	      1.94834316	    -14.88461217	     -6.40023353	    -12.61179908	      6.06454755	      6.12869064
      1.05050000	      2.25954888	     -2.31372029	     -1.85130075	      0.46944412	      1.02720970	      0.34777351	      4.89040215	      5.28550739	     -6.07801050	    -11.38841082	      0.25354055	     -8.47362360	     -2.65001679	     20.97767714	     -9.70711798	    -12.90743401	    -70.72665279	      2.07223965	    -14.70291230	     -6.41501305	    -12.89022632	      5.90727033	      6.34407695
      1.05466667	      2.37109514	     -2.27205120	     -2.03652792	      0.47417436	      1.02774935	      0.34838165	      4.35873013	      5.27341208	     -5.88181880	    -11.16894660	      0.39389797	     -8.38782881	     -2.51559281	     21.33526645	     -9.66882473	    -13.01906468	    -69.96978893	      2.20906803	    -14.47136649	     -6.41737064	    -13.03205133	      5.80196497	      6.45062640
      1.05883333	      2.47922678	     -2.23650450	     -2.20528883	      0.47888040	      1.02822842	      0.34894021	      3.83757517	      5.26039198	     -5.70887870	    -10.96197983	      0.54504131	     -8.28952962	     -2.41657756	     21.68918959	     -9.62749744	    -13.11368650	    -69.17675851	      2.39176688	    -14.24702007	     -6.41123597	    -13.17047208	      5.70574777	      6.52857996
      1.06300000	      2.49219533	     -2.20586675	     -2.32470726	      0.48360931	      1.02853398	      0.34936804	      3.42193915	      5.24602681	     -5.59532294	    -10.75806542	      0.64436123	     -8.22980343	     -2.37894516	     22.15245035	     -9.56433987	    -13.14504807	    -68.34330330	      2.49435167	    -14.03651026	     -6.40586333	    -13.18860319	      5.63598518	      6.57000027
      1.06716667	      2.64689401	     -2.16705853	     -2.54918784	      0.48828371	      1.02904359	      0.35007740	      2.85705032	      5.23317808	     -5.33578722	    -10.56047549	      0.81956374	     -8.13607939	     -2.27894184	     22.39367874	     -9.55194278	    -13.32022202	    -67.43454975	      2.67720590	    -13.82185249	     -6.39067225	    -13.39752212	      5.50908318	      6.70023315
